<svg class="svg-icon" style="width: 1em; height: 1em;vertical-align: middle;fill: currentColor;overflow: hidden;" viewBox="0 0 1024 1024" version="1.1" xmlns="http://www.w3.org/2000/svg"><path d="M878.6 777.2c0 42.1-12.7 75-38 98.9-25.3 24-59 35.9-101 35.9H284.4c-42.1 0-75.7-11.9-101-35.9-25.3-24-38-57-38-98.9 0-23.7 1-46.3 2.8-68.2 1.9-21.9 6-45.8 12.5-71.9s14.7-49.1 24.8-69c10.1-19.9 24.1-37.8 42.2-53.7 18.1-15.8 38.9-26.3 62.5-31.5-7.7 18.1-11.5 38.9-11.5 62.5v105.7c-20.2 6.9-36.3 19.1-48.4 36.5-12.2 17.4-18.2 36.6-18.2 57.8 0 27.8 9.7 51.4 29.1 70.9s43.1 29.1 70.9 29.1 51.4-9.7 70.9-29.1c19.4-19.4 29.1-43.1 29.1-70.9 0-21.1-6.1-40.4-18.5-57.8-12.4-17.3-28.4-29.5-48.2-36.5V545.4c0-21.6 4.4-37.7 13-48.4 45.8 36.1 97.1 54.1 153.7 54.1S619.9 533 665.8 497c8.7 10.7 13 26.9 13 48.4v33.3c-36.8 0-68.2 13-94.3 39.1-26.1 26.1-39.1 57.5-39.1 94.3v46.3c-11.1 10.1-16.7 22.3-16.7 37 0 13.9 4.8 25.7 14.6 35.4 9.7 9.7 21.6 14.6 35.4 14.6 13.9 0 25.7-4.8 35.4-14.6 9.7-9.7 14.6-21.6 14.6-35.4 0-14.6-5.6-26.9-16.7-37v-46.3c0-18.1 6.6-33.6 19.8-46.9 13.1-13.1 28.8-19.8 46.9-19.8s33.6 6.6 46.9 19.8c13.1 13.3 19.8 28.8 19.8 46.9v46.3c-11.1 10.1-16.7 22.3-16.7 37 0 13.9 4.8 25.7 14.6 35.4 9.7 9.7 21.5 14.6 35.4 14.6s25.7-4.8 35.4-14.6c9.7-9.7 14.6-21.6 14.6-35.4 0-14.6-5.6-26.9-16.7-37v-46.3c0-23.7-6-45.8-18-66.4-11.9-20.7-28.3-36.9-48.7-48.7 0-3.5 0.1-10.8 0.2-22.1 0.2-11.3 0.2-19.6 0-25-0.2-5.4-0.7-12.6-1.3-21.6-0.7-9-1.9-17.2-3.6-24.4-1.8-7.3-3.9-14.2-6.8-20.8 23.7 5.3 44.5 15.7 62.5 31.5 18.1 15.8 32.1 33.7 42.2 53.7s18.3 42.9 24.8 69 10.6 50 12.5 71.9c2 21.5 2.8 44.3 2.8 68z m-543.2-55.3c6.6 6.6 9.9 14.5 9.9 23.4 0 9-3.3 16.9-9.9 23.4-6.6 6.6-14.5 9.9-23.4 9.9s-16.9-3.3-23.4-9.9-9.9-14.5-9.9-23.4c0-9 3.3-16.9 9.9-23.4S303 712 312 712c9.1 0 16.8 3.3 23.4 9.9z m318-551.3C692.5 209.7 712 256.8 712 312s-19.5 102.3-58.6 141.4S567.2 512 512 512s-102.3-19.5-141.4-58.6S312 367.2 312 312s19.5-102.3 58.6-141.4S456.8 112 512 112s102.3 19.5 141.4 58.6z"  /></svg>